<?xml version='1.0' encoding='utf-8'?>
<svg xmlns="http://www.w3.org/2000/svg" y="0in" id="svg2" viewBox="0 0 14.4 43.2" baseProfile="tiny" height="0.6in" version="1.2"  x="0in" width="0.2in" xmlns:svg="http://www.w3.org/2000/svg">
    <desc>
        <referenceFile>generic_female_pin_header_6_100mil_10thin_schematic.svg</referenceFile>
    </desc>
    <g id="schematic">
        <line stroke-linecap="round" y2="3.6" id="connector0pin" x1="0.35" stroke="#000000" stroke-width="0.7" stroke-linejoin="round" x2="7.346" fill="none" y1="3.6"/>
        <rect y="3.504" id="connector0terminal" height="0.208" x="-0.252" width="0.546" fill="none"/>
        <polyline stroke-linecap="round" stroke="#000000" stroke-width="0.7" stroke-linejoin="round" points="14.1,5.557 9.928,3.6 14.1,1.643" fill="none"/>
        <line stroke-linecap="round" y2="3.6" id="line" x1="10.11" stroke="#000000" stroke-width="0.7" stroke-linejoin="round" x2="4.804" fill="none" y1="3.6"/>
        <text y="2.58" stroke="none" font-family="'Droid Sans'" class="text" stroke-width="0" text-anchor="middle" x="5.05" fill="#8c8c8c" font-size="2.5">1</text>
        <line stroke-linecap="round" y2="10.8" id="connector1pin" x1="0.35" stroke="#000000" stroke-width="0.7" stroke-linejoin="round" x2="7.346" fill="none" y1="10.8"/>
        <rect y="10.704" id="connector1terminal" height="0.208" x="-0.252" width="0.546" fill="none"/>
        <polyline stroke-linecap="round" stroke="#000000" stroke-width="0.7" stroke-linejoin="round" points="14.1,12.757 9.928,10.8 14.1,8.843" fill="none"/>
        <line stroke-linecap="round" y2="10.8" id="line" x1="10.11" stroke="#000000" stroke-width="0.7" stroke-linejoin="round" x2="4.804" fill="none" y1="10.8"/>
        <text y="9.78" stroke="none" font-family="'Droid Sans'" class="text" stroke-width="0" text-anchor="middle" x="5.05" fill="#8c8c8c" font-size="2.5">2</text>
        <line stroke-linecap="round" y2="18" id="connector2pin" x1="0.35" stroke="#000000" stroke-width="0.7" stroke-linejoin="round" x2="7.346" fill="none" y1="18"/>
        <rect y="17.904" id="connector2terminal" height="0.208" x="-0.252" width="0.546" fill="none"/>
        <polyline stroke-linecap="round" stroke="#000000" stroke-width="0.7" stroke-linejoin="round" points="14.1,19.957 9.928,18 14.1,16.043" fill="none"/>
        <line stroke-linecap="round" y2="18" id="line" x1="10.11" stroke="#000000" stroke-width="0.7" stroke-linejoin="round" x2="4.804" fill="none" y1="18"/>
        <text y="16.98" stroke="none" font-family="'Droid Sans'" class="text" stroke-width="0" text-anchor="middle" x="5.05" fill="#8c8c8c" font-size="2.5">3</text>
        <line stroke-linecap="round" y2="25.2" id="connector3pin" x1="0.35" stroke="#000000" stroke-width="0.7" stroke-linejoin="round" x2="7.346" fill="none" y1="25.2"/>
        <rect y="25.104" id="connector3terminal" height="0.208" x="-0.252" width="0.546" fill="none"/>
        <polyline stroke-linecap="round" stroke="#000000" stroke-width="0.7" stroke-linejoin="round" points="14.1,27.157 9.928,25.2 14.1,23.243" fill="none"/>
        <line stroke-linecap="round" y2="25.2" id="line" x1="10.11" stroke="#000000" stroke-width="0.7" stroke-linejoin="round" x2="4.804" fill="none" y1="25.2"/>
        <text y="24.18" stroke="none" font-family="'Droid Sans'" class="text" stroke-width="0" text-anchor="middle" x="5.05" fill="#8c8c8c" font-size="2.5">4</text>
        <line stroke-linecap="round" y2="32.4" id="connector4pin" x1="0.35" stroke="#000000" stroke-width="0.7" stroke-linejoin="round" x2="7.346" fill="none" y1="32.4"/>
        <rect y="32.304" id="connector4terminal" height="0.208" x="-0.252" width="0.546" fill="none"/>
        <polyline stroke-linecap="round" stroke="#000000" stroke-width="0.7" stroke-linejoin="round" points="14.1,34.357 9.928,32.4 14.1,30.443" fill="none"/>
        <line stroke-linecap="round" y2="32.4" id="line" x1="10.11" stroke="#000000" stroke-width="0.7" stroke-linejoin="round" x2="4.804" fill="none" y1="32.4"/>
        <text y="31.38" stroke="none" font-family="'Droid Sans'" class="text" stroke-width="0" text-anchor="middle" x="5.05" fill="#8c8c8c" font-size="2.5">5</text>
        <line stroke-linecap="round" y2="39.6" id="connector5pin" x1="0.35" stroke="#000000" stroke-width="0.7" stroke-linejoin="round" x2="7.346" fill="none" y1="39.6"/>
        <rect y="39.504" id="connector5terminal" height="0.208" x="-0.252" width="0.546" fill="none"/>
        <polyline stroke-linecap="round" stroke="#000000" stroke-width="0.7" stroke-linejoin="round" points="14.1,41.557 9.928,39.6 14.1,37.643" fill="none"/>
        <line stroke-linecap="round" y2="39.6" id="line" x1="10.11" stroke="#000000" stroke-width="0.7" stroke-linejoin="round" x2="4.804" fill="none" y1="39.6"/>
        <text y="38.58" stroke="none" font-family="'Droid Sans'" class="text" stroke-width="0" text-anchor="middle" x="5.05" fill="#8c8c8c" font-size="2.5">6</text>
    </g>
</svg>
