<?xml version='1.0' encoding='UTF-8' standalone='no'?>
<!-- Generator: Adobe Illustrator 16.0.0, SVG Export Plug-In . SVG Version: 6.00 Build 0)  -->
<svg xmlns="http://www.w3.org/2000/svg" gorn="0"  height="0.829847in" id="0" version="1.1" xml:space="preserve" width="0.405403in" xmlns:xml="http://www.w3.org/XML/1998/namespace" viewBox="0 0 29.189 59.749" x="0px" y="0px">
    <metadata  id="metadata4962">
        <rdf:RDF xmlns:rdf="http://www.w3.org/1999/02/22-rdf-syntax-ns#">
            <cc:Work xmlns:cc="http://creativecommons.org/ns#" rdf:about="" xmlns:rdf="http://www.w3.org/1999/02/22-rdf-syntax-ns#">
                <dc:format xmlns:dc="http://purl.org/dc/elements/1.1/">image/svg+xml</dc:format>
                <dc:type xmlns:dc="http://purl.org/dc/elements/1.1/" rdf:resource="http://purl.org/dc/dcmitype/StillImage" xmlns:rdf="http://www.w3.org/1999/02/22-rdf-syntax-ns#"/>
            </cc:Work>
        </rdf:RDF>
    </metadata>
    <defs  id="defs4960"/>
    <desc  id="0.0">
        <referenceFile  id="0.0.0">starter-poti2.svg</referenceFile>
    </desc>
    <g gorn="0.3"  id="breadboard">
        <rect gorn="0.3.0"  height="0.647" id="0.1.0" fill="#0E0E0E" width="1.517" x="13.858" y="0.583"/>
        <g gorn="0.3.1"  id="0.1.1">
            <polygon  fill="none" points="6.879,58.632 7.955,58.632 7.955,59.749 6.879,59.749 "/>
            <polygon gorn="0.3.1.1"  id="connector0terminal" fill="none" points="6.864,59.196 7.952,59.196 7.957,59.751 6.858,59.751 "/>
            <polygon  fill="none" points="14.054,58.636 15.176,58.636 15.17,59.749 14.059,59.749 "/>
            <polygon gorn="0.3.1.3"  id="connector1terminal" fill="none" points="14.042,59.196 15.188,59.196 15.198,59.751 14.033,59.751 "/>
            <polygon  fill="none" points="21.283,58.632 22.36,58.632 22.35,59.749 21.289,59.749 "/>
            <polygon gorn="0.3.1.5"  id="connector2terminal" fill="none" points="21.285,59.196 22.356,59.196 22.362,59.751 21.28,59.751 "/>
        </g>
        <g  transform="translate(100,144.521)">
            <g >
                <g >
                    <g gorn="0.3.2.0.0.0"  id="g4771">
                        <g gorn="0.3.2.0.0.0.0"  id="g4773">
                            <g gorn="0.3.2.0.0.0.0.0"  id="0.1.2">
                                <g gorn="0.3.2.0.0.0.0.0.0"  id="g4776">
                                    <g gorn="0.3.2.0.0.0.0.0.0.0"  id="0.1.2.0">
                                        <g gorn="0.3.2.0.0.0.0.0.0.0.0"  id="g4779">
                                            <g  transform="matrix(1, 0, 0, 1, 1388.89, 1968.75)">
                                                <g >
                                                    <g >
                                                        <g gorn="0.3.2.0.0.0.0.0.0.0.0.0.0.0.0"  id="g4781">
                                                            <g gorn="0.3.2.0.0.0.0.0.0.0.0.0.0.0.0.0"  id="g4783">
                                                                <g gorn="0.3.2.0.0.0.0.0.0.0.0.0.0.0.0.0.0"  id="0.1.2.0.0.0.0">
                                                                    <g gorn="0.3.2.0.0.0.0.0.0.0.0.0.0.0.0.0.0.0"  id="0.1.2.0.0.0">
                                                                        <g gorn="0.3.2.0.0.0.0.0.0.0.0.0.0.0.0.0.0.0.0"  id="g4787">
                                                                            <g gorn="0.3.2.0.0.0.0.0.0.0.0.0.0.0.0.0.0.0.0.0"  id="g4789">
                                                                                <g gorn="0.3.2.0.0.0.0.0.0.0.0.0.0.0.0.0.0.0.0.0.0"  id="0.1.2.0.0">
                                                                                    <path gorn="0.3.2.0.0.0.0.0.0.0.0.0.0.0.0.0.0.0.0.0.0.0"  id="path4792" fill="#0A0A0A" d="M-1461.315-2058.481c0,1.418-1.154,2.566-2.574,2.566h-20.82c-1.426,0-2.578-1.15-2.578-2.566v-28.688c0-1.417,1.152-2.569,2.578-2.569h20.817c1.425,0,2.573,1.152,2.573,2.569v28.688H-1461.315z"/>
                                                                                    <path gorn="0.3.2.0.0.0.0.0.0.0.0.0.0.0.0.0.0.0.0.0.0.1"  id="0.1.2.0.0.1" fill="#1A1A1A" d="M-1461.318-2063.17c0,1.422-1.152,2.572-2.575,2.572h-20.807c-1.423,0-2.576-1.15-2.576-2.572v-28.75c0-1.423,1.152-2.574,2.576-2.574h20.809c1.423,0,2.573,1.152,2.573,2.574V-2063.17L-1461.318-2063.17z"/>
                                                                                    <path gorn="0.3.2.0.0.0.0.0.0.0.0.0.0.0.0.0.0.0.0.0.0.2"  id="0.1.2.0.0.2" fill="#ABABAB" d="M-1461.318-2064.29c0,1.422-1.152,2.574-2.575,2.574h-20.807c-1.423,0-2.576-1.15-2.576-2.574v-27.63c0-1.423,1.152-2.574,2.576-2.574h20.809c1.423,0,2.573,1.154,2.573,2.574V-2064.29L-1461.318-2064.29z"/>
                                                                                    <path gorn="0.3.2.0.0.0.0.0.0.0.0.0.0.0.0.0.0.0.0.0.0.3"  id="0.1.2.0.0.3" fill="#CCCCCC" d="M-1487.278-2091.745c0-1.42,1.154-2.574,2.578-2.574h20.809c1.421,0,2.573,1.151,2.573,2.574v-0.173c0-1.421-1.152-2.574-2.573-2.574h-20.809c-1.423,0-2.578,1.15-2.578,2.574V-2091.745z"/>
                                                                                    <path gorn="0.3.2.0.0.0.0.0.0.0.0.0.0.0.0.0.0.0.0.0.0.4"  id="0.1.2.0.0.4" fill="#666666" d="M-1461.318-2064.463c0,1.42-1.15,2.572-2.573,2.572h-20.809c-1.422,0-2.576-1.15-2.576-2.572v0.174c0,1.422,1.153,2.574,2.576,2.574h20.809c1.423,0,2.573-1.15,2.573-2.574V-2064.463z"/>
                                                                                    <path gorn="0.3.2.0.0.0.0.0.0.0.0.0.0.0.0.0.0.0.0.0.0.5"  id="0.1.2.0.0.5" d="M-1463.984-2066.303c0.98,0,1.774,0.795,1.774,1.773c0,0.977-0.794,1.77-1.774,1.77c-0.977,0-1.771-0.793-1.771-1.77C-1465.754-2065.508-1464.96-2066.303-1463.984-2066.303z"/>
                                                                                    <circle gorn="0.3.2.0.0.0.0.0.0.0.0.0.0.0.0.0.0.0.0.0.0.6"  id="0.1.2.0.0.6" cx="-1484.615" cy="-2064.532" r="1.771"/>
                                                                                    <circle gorn="0.3.2.0.0.0.0.0.0.0.0.0.0.0.0.0.0.0.0.0.0.7"  id="0.1.2.0.0.7" cx="-1463.984" cy="-2091.818" r="1.772"/>
                                                                                    <circle gorn="0.3.2.0.0.0.0.0.0.0.0.0.0.0.0.0.0.0.0.0.0.8"  id="0.1.2.0.0.8" cx="-1484.615" cy="-2091.818" r="1.772"/>
                                                                                    <path gorn="0.3.2.0.0.0.0.0.0.0.0.0.0.0.0.0.0.0.0.0.0.9"  id="0.1.2.0.0.9" fill="#0D0D0D" d="M-1463.984-2066.235c0.787,0,1.42,0.637,1.42,1.42s-0.633,1.418-1.42,1.418c-0.78,0-1.418-0.635-1.418-1.418S-1464.764-2066.235-1463.984-2066.235z"/>
                                                                                    <circle gorn="0.3.2.0.0.0.0.0.0.0.0.0.0.0.0.0.0.0.0.0.0.10"  id="0.1.2.0.0.10" fill="#0D0D0D" cx="-1484.615" cy="-2064.816" r="1.419"/>
                                                                                    <circle gorn="0.3.2.0.0.0.0.0.0.0.0.0.0.0.0.0.0.0.0.0.0.11"  id="0.1.2.0.0.11" fill="#0D0D0D" cx="-1463.984" cy="-2092.104" r="1.418"/>
                                                                                    <circle gorn="0.3.2.0.0.0.0.0.0.0.0.0.0.0.0.0.0.0.0.0.0.12"  id="0.1.2.0.0.12" fill="#0D0D0D" cx="-1484.615" cy="-2092.104" r="1.418"/>
                                                                                    <path gorn="0.3.2.0.0.0.0.0.0.0.0.0.0.0.0.0.0.0.0.0.0.13"  id="0.1.2.0.0.13" fill="#666666" d="M-1480.672-2077.579c0.276-3.271,3.046-5.848,6.392-5.848c3.347,0,6.117,2.576,6.392,5.848v-5.246c-0.277-3.275-3.096-15.334-6.44-15.334c-3.347,0-6.066,12.061-6.343,15.334V-2077.579z"/>
                                                                                    <circle gorn="0.3.2.0.0.0.0.0.0.0.0.0.0.0.0.0.0.0.0.0.0.14"  id="0.1.2.0.0.14" fill="#666666" cx="-1474.296" cy="-2077.867" r="6.81"/>
                                                                                    <circle gorn="0.3.2.0.0.0.0.0.0.0.0.0.0.0.0.0.0.0.0.0.0.15"  id="0.1.2.0.0.15" cx="-1474.296" cy="-2077.866" r="6.551"/>
                                                                                    <polygon gorn="0.3.2.0.0.0.0.0.0.0.0.0.0.0.0.0.0.0.0.0.0.16"  id="0.1.2.0.0.16" opacity="0.7" points="-1467.938,-2107.793 -1467.938,-2108.712 -1468.236,-2108.82 -1468.236,-2109.662 -1468.711,-2109.756 -1468.711,-2110.545 -1469.358,-2110.575 -1469.358,-2111.349 -1470.155,-2111.262 -1470.155,-2112.042 -1471.042,-2111.807 -1471.084,-2112.603 -1471.903,-2112.239 -1472.112,-2113.02 -1472.843,-2112.54 -1473.201,-2113.271 -1473.83,-2112.686 -1473.832,-2112.687 -1473.934,-2107.729 -1474.936,-2107.751 -1474.835,-2112.688 -1475.46,-2113.271 -1475.814,-2112.54 -1476.548,-2113.02 -1476.752,-2112.239 -1477.569,-2112.603 -1477.617,-2111.807 -1478.496,-2112.042 -1478.496,-2111.262 -1479.294,-2111.349 -1479.294,-2110.575 -1479.945,-2110.545 -1479.945,-2109.757 -1480.426,-2109.662 -1480.426,-2108.819 -1480.718,-2108.712 -1480.718,-2107.797 -1480.82,-2107.741 -1480.82,-2097.884 -1480.718,-2097.826 -1480.718,-2096.905 -1480.426,-2096.8 -1480.426,-2095.963 -1479.945,-2095.866 -1479.945,-2095.073 -1479.303,-2095.042 -1479.303,-2094.269 -1478.496,-2094.357 -1478.496,-2093.578 -1477.617,-2093.813 -1477.578,-2093.015 -1476.752,-2093.378 -1476.548,-2092.599 -1475.814,-2093.085 -1475.46,-2092.348 -1474.831,-2092.933 -1474.331,-2092.265 -1473.83,-2092.933 -1473.201,-2092.348 -1472.843,-2093.085 -1472.112,-2092.599 -1471.908,-2093.378 -1471.084,-2093.015 -1471.042,-2093.813 -1470.162,-2093.578 -1470.162,-2094.358 -1469.358,-2094.269 -1469.358,-2095.042 -1468.711,-2095.073 -1468.711,-2095.867 -1468.236,-2095.963 -1468.236,-2096.797 -1467.938,-2096.905 -1467.938,-2097.832 -1467.845,-2097.884 -1467.845,-2107.741 "/>
                                                                                    <path gorn="0.3.2.0.0.0.0.0.0.0.0.0.0.0.0.0.0.0.0.0.0.17"  id="0.1.2.0.0.17" fill="#060606" d="M-1467.938-2097.115v-10.573l0.093-0.053l-0.77-0.433l0.677-0.539l-0.851-0.311l0.552-0.64l-0.893-0.176l0.418-0.708l-0.919-0.042l0.272-0.762l-0.915,0.1l0.117-0.792l-0.887,0.235l-0.042-0.796l-0.819,0.363l-0.209-0.781l-0.73,0.48l-0.358-0.731l-0.627,0.583h-1.007l-0.625-0.583l-0.354,0.731l-0.734-0.48l-0.204,0.781l-0.817-0.363l-0.047,0.796l-0.879-0.235l0.115,0.792l-0.913-0.1l0.268,0.762l-0.919,0.042l0.418,0.708l-0.898,0.176l0.554,0.64l-0.846,0.311l0.671,0.539l-0.773,0.433l0.149,0.083v0.859l-0.047,0.038l0.047,0.017v9.643v0.848v18.934c0.275,3.271,3.045,5.85,6.391,5.85c3.349,0,6.119-2.578,6.392-5.85v-19.796h-0.046L-1467.938-2097.115z"/>
                                                                                    <g gorn="0.3.2.0.0.0.0.0.0.0.0.0.0.0.0.0.0.0.0.0.0.18"  id="0.1.2.0.0.18">
                                                                                        <g gorn="0.3.2.0.0.0.0.0.0.0.0.0.0.0.0.0.0.0.0.0.0.18.0"  id="0.1.2.0.0.18.0">
                                                                                            <g gorn="0.3.2.0.0.0.0.0.0.0.0.0.0.0.0.0.0.0.0.0.0.18.0.0"  id="0.1.2.0.0.18.0.0">
                                                                                                <g gorn="0.3.2.0.0.0.0.0.0.0.0.0.0.0.0.0.0.0.0.0.0.18.0.0.0"  id="0.1.2.0.0.18.0.0.0">
                                                                                                    <g gorn="0.3.2.0.0.0.0.0.0.0.0.0.0.0.0.0.0.0.0.0.0.18.0.0.0.0"  id="0.1.2.0.0.18.0.0.0.0" opacity="0.8">
                                                                                                        <polygon gorn="0.3.2.0.0.0.0.0.0.0.0.0.0.0.0.0.0.0.0.0.0.18.0.0.0.0.0"  id="0.1.2.0.0.18.0.0.0.0.0" fill="#1A1A1A" points="-1470.155,-2112.042 -1470.155,-2102.802 -1470.273,-2102.011 -1470.273,-2111.249 "/>
                                                                                                    </g>
                                                                                                    <g gorn="0.3.2.0.0.0.0.0.0.0.0.0.0.0.0.0.0.0.0.0.0.18.0.0.0.1"  id="0.1.2.0.0.18.0.0.0.1" opacity="0.8">
                                                                                                        <polygon gorn="0.3.2.0.0.0.0.0.0.0.0.0.0.0.0.0.0.0.0.0.0.18.0.0.0.1.0"  id="0.1.2.0.0.18.0.0.0.1.0" fill="#1A1A1A" points="-1478.381,-2111.249 -1478.381,-2102.011 -1478.496,-2102.802 -1478.496,-2112.042 "/>
                                                                                                    </g>
                                                                                                    <g gorn="0.3.2.0.0.0.0.0.0.0.0.0.0.0.0.0.0.0.0.0.0.18.0.0.0.2"  id="0.1.2.0.0.18.0.0.0.2" opacity="0.8">
                                                                                                        <polygon gorn="0.3.2.0.0.0.0.0.0.0.0.0.0.0.0.0.0.0.0.0.0.18.0.0.0.2.0"  id="0.1.2.0.0.18.0.0.0.2.0" fill="#1A1A1A" points="-1479.026,-2110.587 -1479.026,-2101.35 -1479.294,-2102.112 -1479.294,-2111.349 "/>
                                                                                                    </g>
                                                                                                    <g gorn="0.3.2.0.0.0.0.0.0.0.0.0.0.0.0.0.0.0.0.0.0.18.0.0.0.3"  id="0.1.2.0.0.18.0.0.0.3" opacity="0.8">
                                                                                                        <polygon gorn="0.3.2.0.0.0.0.0.0.0.0.0.0.0.0.0.0.0.0.0.0.18.0.0.0.3.0"  id="0.1.2.0.0.18.0.0.0.3.0" fill="#1A1A1A" points="-1469.358,-2111.349 -1469.358,-2102.112 -1469.63,-2101.35 -1469.63,-2110.587 "/>
                                                                                                    </g>
                                                                                                    <g gorn="0.3.2.0.0.0.0.0.0.0.0.0.0.0.0.0.0.0.0.0.0.18.0.0.0.4"  id="0.1.2.0.0.18.0.0.0.4" opacity="0.8">
                                                                                                        <polygon gorn="0.3.2.0.0.0.0.0.0.0.0.0.0.0.0.0.0.0.0.0.0.18.0.0.0.4.0"  id="0.1.2.0.0.18.0.0.0.4.0" fill="#1A1A1A" points="-1479.527,-2109.838 -1479.527,-2100.599 -1479.945,-2101.307 -1479.945,-2110.545 "/>
                                                                                                    </g>
                                                                                                    <g gorn="0.3.2.0.0.0.0.0.0.0.0.0.0.0.0.0.0.0.0.0.0.18.0.0.0.5"  id="0.1.2.0.0.18.0.0.0.5" opacity="0.8">
                                                                                                        <polygon gorn="0.3.2.0.0.0.0.0.0.0.0.0.0.0.0.0.0.0.0.0.0.18.0.0.0.5.0"  id="0.1.2.0.0.18.0.0.0.5.0" fill="#1A1A1A" points="-1468.711,-2110.545 -1468.711,-2101.307 -1469.129,-2100.599 -1469.129,-2109.838 "/>
                                                                                                    </g>
                                                                                                    <g gorn="0.3.2.0.0.0.0.0.0.0.0.0.0.0.0.0.0.0.0.0.0.18.0.0.0.6"  id="0.1.2.0.0.18.0.0.0.6" opacity="0.8">
                                                                                                        <polygon gorn="0.3.2.0.0.0.0.0.0.0.0.0.0.0.0.0.0.0.0.0.0.18.0.0.0.6.0"  id="0.1.2.0.0.18.0.0.0.6.0" fill="#1A1A1A" points="-1468.236,-2109.662 -1468.236,-2100.422 -1468.788,-2099.431 -1468.788,-2109.022 "/>
                                                                                                    </g>
                                                                                                    <g gorn="0.3.2.0.0.0.0.0.0.0.0.0.0.0.0.0.0.0.0.0.0.18.0.0.0.7"  id="0.1.2.0.0.18.0.0.0.7" opacity="0.8">
                                                                                                        <polygon gorn="0.3.2.0.0.0.0.0.0.0.0.0.0.0.0.0.0.0.0.0.0.18.0.0.0.7.0"  id="0.1.2.0.0.18.0.0.0.7.0" fill="#1A1A1A" points="-1479.872,-2109.022 -1479.872,-2099.431 -1480.426,-2100.422 -1480.426,-2109.662 "/>
                                                                                                    </g>
                                                                                                    <g gorn="0.3.2.0.0.0.0.0.0.0.0.0.0.0.0.0.0.0.0.0.0.18.0.0.0.8"  id="0.1.2.0.0.18.0.0.0.8" opacity="0.8">
                                                                                                        <polygon gorn="0.3.2.0.0.0.0.0.0.0.0.0.0.0.0.0.0.0.0.0.0.18.0.0.0.8.0"  id="0.1.2.0.0.18.0.0.0.8.0" fill="#1A1A1A" points="-1467.938,-2108.712 -1467.938,-2099.118 -1468.614,-2098.58 -1468.614,-2108.173 "/>
                                                                                                    </g>
                                                                                                    <g gorn="0.3.2.0.0.0.0.0.0.0.0.0.0.0.0.0.0.0.0.0.0.18.0.0.0.9"  id="0.1.2.0.0.18.0.0.0.9" opacity="0.8">
                                                                                                        <polygon gorn="0.3.2.0.0.0.0.0.0.0.0.0.0.0.0.0.0.0.0.0.0.18.0.0.0.9.0"  id="0.1.2.0.0.18.0.0.0.9.0" fill="#1A1A1A" points="-1480.047,-2108.173 -1480.047,-2098.58 -1480.718,-2099.118 -1480.718,-2108.712 "/>
                                                                                                    </g>
                                                                                                    <g gorn="0.3.2.0.0.0.0.0.0.0.0.0.0.0.0.0.0.0.0.0.0.18.0.0.0.10"  id="0.1.2.0.0.18.0.0.0.10" opacity="0.8">
                                                                                                        <polygon gorn="0.3.2.0.0.0.0.0.0.0.0.0.0.0.0.0.0.0.0.0.0.18.0.0.0.10.0"  id="0.1.2.0.0.18.0.0.0.10.0" fill="#1A1A1A" points="-1467.845,-2107.741 -1467.845,-2098.147 -1468.614,-2097.713 -1468.614,-2107.306 "/>
                                                                                                    </g>
                                                                                                    <g gorn="0.3.2.0.0.0.0.0.0.0.0.0.0.0.0.0.0.0.0.0.0.18.0.0.0.11"  id="0.1.2.0.0.18.0.0.0.11" opacity="0.8">
                                                                                                        <polygon gorn="0.3.2.0.0.0.0.0.0.0.0.0.0.0.0.0.0.0.0.0.0.18.0.0.0.11.0"  id="0.1.2.0.0.18.0.0.0.11.0" fill="#1A1A1A" points="-1480.047,-2107.306 -1480.047,-2097.713 -1480.82,-2098.147 -1480.82,-2107.741 "/>
                                                                                                    </g>
                                                                                                    <g gorn="0.3.2.0.0.0.0.0.0.0.0.0.0.0.0.0.0.0.0.0.0.18.0.0.0.12"  id="0.1.2.0.0.18.0.0.0.12" opacity="0.8">
                                                                                                        <polygon gorn="0.3.2.0.0.0.0.0.0.0.0.0.0.0.0.0.0.0.0.0.0.18.0.0.0.12.0"  id="0.1.2.0.0.18.0.0.0.12.0" fill="#1A1A1A" points="-1479.872,-2106.45 -1479.872,-2096.858 -1480.718,-2097.167 -1480.718,-2106.76 "/>
                                                                                                    </g>
                                                                                                    <g gorn="0.3.2.0.0.0.0.0.0.0.0.0.0.0.0.0.0.0.0.0.0.18.0.0.0.13"  id="0.1.2.0.0.18.0.0.0.13" opacity="0.8">
                                                                                                        <polygon gorn="0.3.2.0.0.0.0.0.0.0.0.0.0.0.0.0.0.0.0.0.0.18.0.0.0.13.0"  id="0.1.2.0.0.18.0.0.0.13.0" fill="#1A1A1A" points="-1467.938,-2106.76 -1467.938,-2097.167 -1468.788,-2096.858 -1468.788,-2106.45 "/>
                                                                                                    </g>
                                                                                                    <g gorn="0.3.2.0.0.0.0.0.0.0.0.0.0.0.0.0.0.0.0.0.0.18.0.0.0.14"  id="0.1.2.0.0.18.0.0.0.14" opacity="0.8">
                                                                                                        <polygon gorn="0.3.2.0.0.0.0.0.0.0.0.0.0.0.0.0.0.0.0.0.0.18.0.0.0.14.0"  id="0.1.2.0.0.18.0.0.0.14.0" fill="#1A1A1A" points="-1468.236,-2105.818 -1468.236,-2096.225 -1469.129,-2096.043 -1469.129,-2105.636 "/>
                                                                                                    </g>
                                                                                                    <g gorn="0.3.2.0.0.0.0.0.0.0.0.0.0.0.0.0.0.0.0.0.0.18.0.0.0.15"  id="0.1.2.0.0.18.0.0.0.15" opacity="0.8">
                                                                                                        <polygon gorn="0.3.2.0.0.0.0.0.0.0.0.0.0.0.0.0.0.0.0.0.0.18.0.0.0.15.0"  id="0.1.2.0.0.18.0.0.0.15.0" fill="#1A1A1A" points="-1479.533,-2105.636 -1479.533,-2096.043 -1480.426,-2096.225 -1480.426,-2105.818 "/>
                                                                                                    </g>
                                                                                                    <g gorn="0.3.2.0.0.0.0.0.0.0.0.0.0.0.0.0.0.0.0.0.0.18.0.0.0.16"  id="0.1.2.0.0.18.0.0.0.16" opacity="0.8">
                                                                                                        <polygon gorn="0.3.2.0.0.0.0.0.0.0.0.0.0.0.0.0.0.0.0.0.0.18.0.0.0.16.0"  id="0.1.2.0.0.18.0.0.0.16.0" fill="#1A1A1A" points="-1479.033,-2104.888 -1479.033,-2095.292 -1479.945,-2095.335 -1479.945,-2104.928 "/>
                                                                                                    </g>
                                                                                                    <g gorn="0.3.2.0.0.0.0.0.0.0.0.0.0.0.0.0.0.0.0.0.0.18.0.0.0.17"  id="0.1.2.0.0.18.0.0.0.17" opacity="0.8">
                                                                                                        <polygon gorn="0.3.2.0.0.0.0.0.0.0.0.0.0.0.0.0.0.0.0.0.0.18.0.0.0.17.0"  id="0.1.2.0.0.18.0.0.0.17.0" fill="#1A1A1A" points="-1468.711,-2104.928 -1468.711,-2095.335 -1469.63,-2095.292 -1469.63,-2104.888 "/>
                                                                                                    </g>
                                                                                                    <g gorn="0.3.2.0.0.0.0.0.0.0.0.0.0.0.0.0.0.0.0.0.0.18.0.0.0.18"  id="0.1.2.0.0.18.0.0.0.18" opacity="0.8">
                                                                                                        <polygon gorn="0.3.2.0.0.0.0.0.0.0.0.0.0.0.0.0.0.0.0.0.0.18.0.0.0.18.0"  id="0.1.2.0.0.18.0.0.0.18.0" fill="#1A1A1A" points="-1478.381,-2104.224 -1478.381,-2094.631 -1479.303,-2094.532 -1479.303,-2104.125 "/>
                                                                                                    </g>
                                                                                                    <g gorn="0.3.2.0.0.0.0.0.0.0.0.0.0.0.0.0.0.0.0.0.0.18.0.0.0.19"  id="0.1.2.0.0.18.0.0.0.19" opacity="0.8">
                                                                                                        <polygon gorn="0.3.2.0.0.0.0.0.0.0.0.0.0.0.0.0.0.0.0.0.0.18.0.0.0.19.0"  id="0.1.2.0.0.18.0.0.0.19.0" fill="#1A1A1A" points="-1469.358,-2104.125 -1469.358,-2094.532 -1470.273,-2094.631 -1470.273,-2104.224 "/>
                                                                                                    </g>
                                                                                                    <g gorn="0.3.2.0.0.0.0.0.0.0.0.0.0.0.0.0.0.0.0.0.0.18.0.0.0.20"  id="0.1.2.0.0.18.0.0.0.20" opacity="0.8">
                                                                                                        <polygon gorn="0.3.2.0.0.0.0.0.0.0.0.0.0.0.0.0.0.0.0.0.0.18.0.0.0.20.0"  id="0.1.2.0.0.18.0.0.0.20.0" fill="#1A1A1A" points="-1470.162,-2103.434 -1470.162,-2093.839 -1471.042,-2094.075 -1471.042,-2103.667 "/>
                                                                                                    </g>
                                                                                                    <g gorn="0.3.2.0.0.0.0.0.0.0.0.0.0.0.0.0.0.0.0.0.0.18.0.0.0.21"  id="0.1.2.0.0.18.0.0.0.21" opacity="0.8">
                                                                                                        <polygon gorn="0.3.2.0.0.0.0.0.0.0.0.0.0.0.0.0.0.0.0.0.0.18.0.0.0.21.0"  id="0.1.2.0.0.18.0.0.0.21.0" fill="#1A1A1A" points="-1477.617,-2103.667 -1477.617,-2094.075 -1478.496,-2093.839 -1478.496,-2103.434 "/>
                                                                                                    </g>
                                                                                                    <g gorn="0.3.2.0.0.0.0.0.0.0.0.0.0.0.0.0.0.0.0.0.0.18.0.0.0.22"  id="0.1.2.0.0.18.0.0.0.22" opacity="0.8">
                                                                                                        <polygon gorn="0.3.2.0.0.0.0.0.0.0.0.0.0.0.0.0.0.0.0.0.0.18.0.0.0.22.0"  id="0.1.2.0.0.18.0.0.0.22.0" fill="#1A1A1A" points="-1477.578,-2102.871 -1477.578,-2093.276 -1477.617,-2094.075 -1477.617,-2103.667 "/>
                                                                                                    </g>
                                                                                                    <g gorn="0.3.2.0.0.0.0.0.0.0.0.0.0.0.0.0.0.0.0.0.0.18.0.0.0.23"  id="0.1.2.0.0.18.0.0.0.23" opacity="0.8">
                                                                                                        <polygon gorn="0.3.2.0.0.0.0.0.0.0.0.0.0.0.0.0.0.0.0.0.0.18.0.0.0.23.0"  id="0.1.2.0.0.18.0.0.0.23.0" fill="#1A1A1A" points="-1471.042,-2103.667 -1471.042,-2094.075 -1471.084,-2093.276 -1471.084,-2102.871 "/>
                                                                                                    </g>
                                                                                                    <g gorn="0.3.2.0.0.0.0.0.0.0.0.0.0.0.0.0.0.0.0.0.0.18.0.0.0.24"  id="0.1.2.0.0.18.0.0.0.24" opacity="0.8">
                                                                                                        <polygon gorn="0.3.2.0.0.0.0.0.0.0.0.0.0.0.0.0.0.0.0.0.0.18.0.0.0.24.0"  id="0.1.2.0.0.18.0.0.0.24.0" fill="#1A1A1A" points="-1476.752,-2103.234 -1476.752,-2093.642 -1477.578,-2093.276 -1477.578,-2102.871 "/>
                                                                                                    </g>
                                                                                                    <g gorn="0.3.2.0.0.0.0.0.0.0.0.0.0.0.0.0.0.0.0.0.0.18.0.0.0.25"  id="0.1.2.0.0.18.0.0.0.25" opacity="0.8">
                                                                                                        <polygon gorn="0.3.2.0.0.0.0.0.0.0.0.0.0.0.0.0.0.0.0.0.0.18.0.0.0.25.0"  id="0.1.2.0.0.18.0.0.0.25.0" fill="#1A1A1A" points="-1471.084,-2102.871 -1471.084,-2093.276 -1471.908,-2093.642 -1471.908,-2103.234 "/>
                                                                                                    </g>
                                                                                                    <g gorn="0.3.2.0.0.0.0.0.0.0.0.0.0.0.0.0.0.0.0.0.0.18.0.0.0.26"  id="0.1.2.0.0.18.0.0.0.26" opacity="0.8">
                                                                                                        <polygon gorn="0.3.2.0.0.0.0.0.0.0.0.0.0.0.0.0.0.0.0.0.0.18.0.0.0.26.0"  id="0.1.2.0.0.18.0.0.0.26.0" fill="#1A1A1A" points="-1476.548,-2102.456 -1476.548,-2092.862 -1476.752,-2093.642 -1476.752,-2103.234 "/>
                                                                                                    </g>
                                                                                                    <g gorn="0.3.2.0.0.0.0.0.0.0.0.0.0.0.0.0.0.0.0.0.0.18.0.0.0.27"  id="0.1.2.0.0.18.0.0.0.27" opacity="0.8">
                                                                                                        <polygon gorn="0.3.2.0.0.0.0.0.0.0.0.0.0.0.0.0.0.0.0.0.0.18.0.0.0.27.0"  id="0.1.2.0.0.18.0.0.0.27.0" fill="#1A1A1A" points="-1475.814,-2102.941 -1475.814,-2093.348 -1476.548,-2092.862 -1476.548,-2102.456 "/>
                                                                                                    </g>
                                                                                                    <g gorn="0.3.2.0.0.0.0.0.0.0.0.0.0.0.0.0.0.0.0.0.0.18.0.0.0.28"  id="0.1.2.0.0.18.0.0.0.28" opacity="0.8">
                                                                                                        <polygon gorn="0.3.2.0.0.0.0.0.0.0.0.0.0.0.0.0.0.0.0.0.0.18.0.0.0.28.0"  id="0.1.2.0.0.18.0.0.0.28.0" fill="#1A1A1A" points="-1472.112,-2102.456 -1472.112,-2092.862 -1472.843,-2093.348 -1472.843,-2102.941 "/>
                                                                                                    </g>
                                                                                                    <g gorn="0.3.2.0.0.0.0.0.0.0.0.0.0.0.0.0.0.0.0.0.0.18.0.0.0.29"  id="0.1.2.0.0.18.0.0.0.29" opacity="0.8">
                                                                                                        <polygon gorn="0.3.2.0.0.0.0.0.0.0.0.0.0.0.0.0.0.0.0.0.0.18.0.0.0.29.0"  id="0.1.2.0.0.18.0.0.0.29.0" fill="#1A1A1A" points="-1471.908,-2103.234 -1471.908,-2093.642 -1472.112,-2092.862 -1472.112,-2102.456 "/>
                                                                                                    </g>
                                                                                                    <g gorn="0.3.2.0.0.0.0.0.0.0.0.0.0.0.0.0.0.0.0.0.0.18.0.0.0.30"  id="0.1.2.0.0.18.0.0.0.30" opacity="0.8">
                                                                                                        <polygon gorn="0.3.2.0.0.0.0.0.0.0.0.0.0.0.0.0.0.0.0.0.0.18.0.0.0.30.0"  id="0.1.2.0.0.18.0.0.0.30.0" fill="#1A1A1A" points="-1474.831,-2102.788 -1474.831,-2093.196 -1475.46,-2092.609 -1475.46,-2102.204 "/>
                                                                                                    </g>
                                                                                                    <g gorn="0.3.2.0.0.0.0.0.0.0.0.0.0.0.0.0.0.0.0.0.0.18.0.0.0.31"  id="0.1.2.0.0.18.0.0.0.31" opacity="0.8">
                                                                                                        <polygon gorn="0.3.2.0.0.0.0.0.0.0.0.0.0.0.0.0.0.0.0.0.0.18.0.0.0.31.0"  id="0.1.2.0.0.18.0.0.0.31.0" fill="#1A1A1A" points="-1473.201,-2102.204 -1473.201,-2092.609 -1473.83,-2093.196 -1473.83,-2102.788 "/>
                                                                                                    </g>
                                                                                                    <g gorn="0.3.2.0.0.0.0.0.0.0.0.0.0.0.0.0.0.0.0.0.0.18.0.0.0.32"  id="0.1.2.0.0.18.0.0.0.32" opacity="0.8">
                                                                                                        <polygon gorn="0.3.2.0.0.0.0.0.0.0.0.0.0.0.0.0.0.0.0.0.0.18.0.0.0.32.0"  id="0.1.2.0.0.18.0.0.0.32.0" fill="#1A1A1A" points="-1472.843,-2102.941 -1472.843,-2093.348 -1473.201,-2092.609 -1473.201,-2102.204 "/>
                                                                                                    </g>
                                                                                                    <g gorn="0.3.2.0.0.0.0.0.0.0.0.0.0.0.0.0.0.0.0.0.0.18.0.0.0.33"  id="0.1.2.0.0.18.0.0.0.33" opacity="0.8">
                                                                                                        <polygon gorn="0.3.2.0.0.0.0.0.0.0.0.0.0.0.0.0.0.0.0.0.0.18.0.0.0.33.0"  id="0.1.2.0.0.18.0.0.0.33.0" fill="#1A1A1A" points="-1475.46,-2102.204 -1475.46,-2092.609 -1475.814,-2093.348 -1475.814,-2102.941 "/>
                                                                                                    </g>
                                                                                                    <g gorn="0.3.2.0.0.0.0.0.0.0.0.0.0.0.0.0.0.0.0.0.0.18.0.0.0.34"  id="0.1.2.0.0.18.0.0.0.34" opacity="0.8">
                                                                                                        <polygon gorn="0.3.2.0.0.0.0.0.0.0.0.0.0.0.0.0.0.0.0.0.0.18.0.0.0.34.0"  id="0.1.2.0.0.18.0.0.0.34.0" fill="#1A1A1A" points="-1473.83,-2102.788 -1473.83,-2093.196 -1474.331,-2092.528 -1474.331,-2102.122 "/>
                                                                                                    </g>
                                                                                                    <g gorn="0.3.2.0.0.0.0.0.0.0.0.0.0.0.0.0.0.0.0.0.0.18.0.0.0.35"  id="0.1.2.0.0.18.0.0.0.35" opacity="0.8">
                                                                                                        <polygon gorn="0.3.2.0.0.0.0.0.0.0.0.0.0.0.0.0.0.0.0.0.0.18.0.0.0.35.0"  id="0.1.2.0.0.18.0.0.0.35.0" fill="#1A1A1A" points="-1474.331,-2102.122 -1474.331,-2092.528 -1474.831,-2093.196 -1474.831,-2102.788 "/>
                                                                                                    </g>
                                                                                                    <polygon gorn="0.3.2.0.0.0.0.0.0.0.0.0.0.0.0.0.0.0.0.0.0.18.0.0.0.36"  id="0.1.2.0.0.18.0.0.0.36" fill="#1A1A1A" points="-1468.614,-2107.306 -1467.845,-2107.741 -1468.614,-2108.173 -1467.938,-2108.712 -1468.788,-2109.022 -1468.236,-2109.662 -1469.129,-2109.838 -1468.711,-2110.545 -1469.63,-2110.587 -1469.358,-2111.349 -1470.273,-2111.249 -1470.155,-2112.042 -1471.042,-2111.807 -1471.084,-2112.603 -1471.903,-2112.239 -1472.112,-2113.02 -1472.843,-2112.54 -1473.201,-2113.271 -1473.83,-2112.686 -1473.832,-2112.687 -1473.934,-2107.729 -1474.936,-2107.751 -1474.835,-2112.688 -1475.46,-2113.271 -1475.814,-2112.54 -1476.548,-2113.02 -1476.752,-2112.239 -1477.569,-2112.603 -1477.617,-2111.807 -1478.496,-2112.042 -1478.381,-2111.249 -1479.294,-2111.349 -1479.026,-2110.587 -1479.945,-2110.545 -1479.527,-2109.838 -1480.426,-2109.662 -1479.872,-2109.022 -1480.718,-2108.712 -1480.047,-2108.173 -1480.82,-2107.741 -1480.047,-2107.306 -1480.718,-2106.76 -1479.872,-2106.45 -1480.426,-2105.818 -1479.533,-2105.636 -1479.945,-2104.928 -1479.033,-2104.888 -1479.303,-2104.125 -1478.381,-2104.224 -1478.496,-2103.434 -1477.617,-2103.667 -1477.578,-2102.871 -1476.752,-2103.234 -1476.548,-2102.456 -1475.814,-2102.941 -1475.46,-2102.204 -1474.831,-2102.788 -1474.331,-2102.122 -1473.83,-2102.788 -1473.201,-2102.204 -1472.843,-2102.941 -1472.112,-2102.456 -1471.908,-2103.234 -1471.084,-2102.871 -1471.042,-2103.667 -1470.162,-2103.434 -1470.273,-2104.224 -1469.358,-2104.125 -1469.63,-2104.888 -1468.711,-2104.928 -1469.129,-2105.636 -1468.236,-2105.818 -1468.788,-2106.45 -1467.938,-2106.76 "/>
                                                                                                </g>
                                                                                            </g>
                                                                                        </g>
                                                                                    </g>
                                                                                    <rect gorn="0.3.2.0.0.0.0.0.0.0.0.0.0.0.0.0.0.0.0.0.0.19"  height="1.209" id="0.1.2.0.0.19" fill="#1A1A1A" width="10.742" x="-1479.633" y="-2060.139"/>
                                                                                    <rect gorn="0.3.2.0.0.0.0.0.0.0.0.0.0.0.0.0.0.0.0.0.0.20"  height="1.576" id="0.1.2.0.0.20" fill="#0E0E0E" width="10.742" x="-1479.633" y="-2061.715"/>
                                                                                </g>
                                                                            </g>
                                                                        </g>
                                                                    </g>
                                                                </g>
                                                            </g>
                                                        </g>
                                                    </g>
                                                </g>
                                            </g>
                                        </g>
                                    </g>
                                </g>
                            </g>
                        </g>
                    </g>
                </g>
            </g>
        </g>
        <ellipse gorn="0.3.3"  id="0.1.3" fill="#0E0E0E" cx="14.455" cy="5.531" rx="5.515" ry="4.507"/>
        <g gorn="0.3.4"  id="0.1.4">
            <path gorn="0.3.4.0"  id="0.1.4.0" d="M14.956,5.542l0.091-4.468c-0.196-0.018-0.39-0.05-0.592-0.05c-0.141,0-0.271,0.025-0.411,0.033l-0.09,4.462L14.956,5.542z"/>
        </g>
        <g gorn="0.3.5"  id="0.1.5">
            <g gorn="0.3.5.0"  id="breadboard_1_">
                <rect gorn="0.3.5.0.0"  height="1.381" id="0.1.5.0.0" fill="#8C8C8C" width="1.191" x="21.225" y="58.37"/>
                <rect gorn="0.3.5.0.1"  height="1.381" id="0.1.5.0.1" fill="#8C8C8C" width="1.191" x="14.02" y="58.37"/>
                <rect gorn="0.3.5.0.2"  height="1.381" id="0.1.5.0.2" fill="#8C8C8C" width="1.19" x="6.823" y="58.37"/>
            </g>
            <g gorn="0.3.5.1"  id="g4898">
                <g gorn="0.3.5.1.0"  id="0.1.5.1.0">
                    <path gorn="0.3.5.1.0.0"  id="0.1.5.1.0.0" fill="#8C8C8C" d="M20.615,56.093c0-0.084,0.07-0.154,0.154-0.154h2.104c0.084,0,0.152,0.07,0.152,0.154v2.303c0,0.084-0.068,0.154-0.152,0.154H20.77c-0.084,0-0.154-0.07-0.154-0.154V56.093z"/>
                </g>
                <g gorn="0.3.5.1.1"  id="0.1.5.1.1">
                    <path gorn="0.3.5.1.1.0"  id="0.1.5.1.1.0" fill="#8C8C8C" d="M13.412,56.093c0-0.084,0.068-0.154,0.152-0.154h2.104c0.084,0,0.152,0.07,0.152,0.154v2.303c0,0.084-0.068,0.154-0.152,0.154h-2.104c-0.084,0-0.152-0.07-0.152-0.154V56.093z"/>
                </g>
                <g gorn="0.3.5.1.2"  id="0.1.5.1.2">
                    <path gorn="0.3.5.1.2.0"  id="0.1.5.1.2.0" fill="#8C8C8C" d="M6.211,56.093c0-0.084,0.069-0.154,0.153-0.154h2.104c0.084,0,0.153,0.07,0.153,0.154v2.303c0,0.084-0.069,0.154-0.153,0.154H6.364c-0.084,0-0.153-0.07-0.153-0.154V56.093z"/>
                </g>
            </g>
            <g gorn="0.3.5.2"  id="breadboard_3_" opacity="0.2">
                <rect gorn="0.3.5.2.0"  height="0.164" id="0.1.5.2.0" width="2.41" x="20.615" y="55.938"/>
                <rect gorn="0.3.5.2.1"  height="0.164" id="0.1.5.2.1" width="2.408" x="13.412" y="55.938"/>
                <rect gorn="0.3.5.2.2"  height="0.164" id="0.1.5.2.2" width="2.409" x="6.211" y="55.938"/>
            </g>
            <g gorn="0.3.5.3"  id="breadboard_4_">
                <rect gorn="0.3.5.3.0"  height="0.166" id="0.1.5.3.0" width="2.41" x="20.615" y="55.772"/>
                <rect gorn="0.3.5.3.1"  height="0.166" id="0.1.5.3.1" width="2.408" x="13.412" y="55.772"/>
                <rect gorn="0.3.5.3.2"  height="0.166" id="0.1.5.3.2" width="2.409" x="6.211" y="55.772"/>
            </g>
            <g gorn="0.3.5.4"  id="0.1.5.4">
                <path gorn="0.3.5.4.0"  id="connector0pin" fill="#808080" d="M7.736,59.462c0,0.098-0.094,0.18-0.21,0.18H7.305c-0.116,0-0.21-0.082-0.21-0.18v-1.475c0-0.098,0.094-0.18,0.21-0.18h0.221c0.116,0,0.21,0.082,0.21,0.18V59.462z"/>
                <path gorn="0.3.5.4.1"  id="0.1.5.4.1" opacity="0.1" d="M7.736,58.124c0-0.115-0.094-0.211-0.21-0.211H7.305c-0.116,0-0.21,0.096-0.21,0.211v-0.105c0-0.115,0.094-0.211,0.21-0.211h0.221c0.116,0,0.21,0.096,0.21,0.211V58.124z"/>
                <path gorn="0.3.5.4.2"  id="0.1.5.4.2" opacity="0.15" fill="#FFFFFF" d="M7.095,59.372c0,0.098,0.094,0.18,0.21,0.18h0.221c0.116,0,0.21-0.082,0.21-0.18v0.09c0,0.098-0.094,0.18-0.21,0.18H7.305c-0.116,0-0.21-0.082-0.21-0.18V59.372z"/>
            </g>
            <g gorn="0.3.5.5"  id="0.1.5.5">
                <path gorn="0.3.5.5.0"  id="0.1.5.5.0" fill="#808080" d="M14.936,59.462c0,0.098-0.094,0.18-0.211,0.18h-0.221c-0.115,0-0.209-0.082-0.209-0.18v-1.475c0-0.098,0.094-0.18,0.209-0.18h0.221c0.117,0,0.211,0.082,0.211,0.18V59.462z"/>
                <path gorn="0.3.5.5.1"  id="0.1.5.5.1" opacity="0.1" d="M14.936,58.124c0-0.115-0.094-0.211-0.211-0.211h-0.221c-0.115,0-0.209,0.096-0.209,0.211v-0.105c0-0.115,0.094-0.211,0.209-0.211h0.221c0.117,0,0.211,0.096,0.211,0.211V58.124z"/>
                <path gorn="0.3.5.5.2"  id="connector2pin" opacity="0.15" fill="#FFFFFF" d="M14.295,59.372c0,0.098,0.094,0.18,0.209,0.18h0.221c0.117,0,0.211-0.082,0.211-0.18v0.09c0,0.098-0.094,0.18-0.211,0.18h-0.221c-0.115,0-0.209-0.082-0.209-0.18V59.372z"/>
            </g>
            <g gorn="0.3.5.6"  id="0.1.5.6">
                <path gorn="0.3.5.6.0"  id="0.1.5.6.0" fill="#808080" d="M22.141,59.462c0,0.098-0.094,0.18-0.209,0.18h-0.221c-0.115,0-0.211-0.082-0.211-0.18v-1.475c0-0.098,0.096-0.18,0.211-0.18h0.221c0.115,0,0.209,0.082,0.209,0.18V59.462z"/>
                <path gorn="0.3.5.6.1"  id="0.1.5.6.1" opacity="0.1" d="M22.141,58.124c0-0.115-0.094-0.211-0.209-0.211h-0.221c-0.115,0-0.211,0.096-0.211,0.211v-0.105c0-0.115,0.096-0.211,0.211-0.211h0.221c0.115,0,0.209,0.096,0.209,0.211V58.124z"/>
                <path gorn="0.3.5.6.2"  id="connector4pin" opacity="0.15" fill="#FFFFFF" d="M21.5,59.372c0,0.098,0.096,0.18,0.211,0.18h0.221c0.115,0,0.209-0.082,0.209-0.18v0.09c0,0.098-0.094,0.18-0.209,0.18h-0.221c-0.115,0-0.211-0.082-0.211-0.18V59.372z"/>
            </g>
        </g>
        <g gorn="0.3.6"  id="0.1.6">
            <polygon gorn="0.3.6.0"  id="0.1.6.0" fill="none" points="8.462,17.098 8.535,17.114 8.535,17.016 "/>
            <path gorn="0.3.6.1"  id="0.1.6.1" fill="none" d="M8.462,17.098l0.073-0.083v-0.082h0.072l0.413-0.469l-0.801-0.297v19.937c0.042,0.506,0.163,0.984,0.318,1.451V17.114L8.462,17.098z"/>
            <path gorn="0.3.6.2"  id="0.1.6.2" fill="#0F0F0F" d="M20.952,16.156l-0.851,0.311l0.552,0.632l-0.893,0.182l0.42,0.708L19.26,18.03l0.271,0.762l-0.913-0.098l0.108,0.791l-0.88-0.236l-0.04,0.797l-0.187-0.082v21.211c1.862-0.998,3.195-2.865,3.378-5.07V16.156H20.952z"/>
            <path gorn="0.3.6.3"  id="0.1.6.3" opacity="0.2" fill="#202020" d="M16.98,19.684l-0.2,0.779l-0.732-0.485l-0.281,0.571v21.295c0.662-0.119,1.277-0.361,1.854-0.668V19.965L16.98,19.684z"/>
            <polygon gorn="0.3.6.4"  id="0.1.6.4" opacity="0.2" fill="#202020" points="8.535,17.016 8.607,16.935 8.535,16.935 "/>
            <path gorn="0.3.6.5"  id="0.1.6.5" opacity="0.2" fill="#202020" d="M11.723,41.239V19.866l-0.413,0.183l-0.041-0.799l-0.878,0.235l0.115-0.791l-0.92,0.099l0.27-0.761L8.942,17.99l0.413-0.709l-0.819-0.167v20.443C9.069,39.167,10.228,40.479,11.723,41.239z"/>
            <path gorn="0.3.6.6"  id="0.1.6.6" opacity="0.2" fill="#202020" d="M13.074,19.978l-0.736,0.485l-0.203-0.779l-0.412,0.182v21.374c0.455,0.23,0.934,0.418,1.439,0.533V20.163L13.074,19.978z"/>
            <path gorn="0.3.6.7"  id="0.1.6.7" opacity="0.2" fill="#353535" d="M13.074,19.978l-0.736,0.485l-0.203-0.779l-0.412,0.182v21.374c0.455,0.23,0.934,0.418,1.439,0.533V20.163L13.074,19.978z"/>
            <path gorn="0.3.6.8"  id="0.1.6.8" opacity="0.2" fill="#202020" d="M15.056,20.129l-0.502,0.668l-0.227-0.303v21.432c0.093,0.008,0.186,0.029,0.279,0.029c0.396,0,0.783-0.043,1.157-0.113V20.549l-0.082,0.165L15.056,20.129z"/>
            <path gorn="0.3.6.9"  id="0.1.6.9" opacity="0.2" fill="#353535" d="M15.056,20.129l-0.502,0.668l-0.227-0.303v21.432c0.093,0.008,0.186,0.029,0.279,0.029c0.396,0,0.783-0.043,1.157-0.113V20.549l-0.082,0.165L15.056,20.129z"/>
            <path gorn="0.3.6.10"  id="0.1.6.10" opacity="0.2" fill="#202020" d="M14.053,20.129l-0.627,0.585l-0.264-0.551v21.609c0.378,0.088,0.765,0.139,1.165,0.156V20.495L14.053,20.129z"/>
            <path gorn="0.3.6.11"  id="0.1.6.11" opacity="0.2" fill="#353535" d="M14.053,20.129l-0.627,0.585l-0.264-0.551v21.609c0.378,0.088,0.765,0.139,1.165,0.156V20.495L14.053,20.129z"/>
            <path gorn="0.3.6.12"  id="0.1.6.12" opacity="0.2" fill="#515151" d="M14.053,20.129l-0.627,0.585l-0.264-0.551v21.609c0.378,0.088,0.765,0.139,1.165,0.156V20.495L14.053,20.129z"/>
        </g>
        <g gorn="0.3.7"  id="0.1.7" opacity="0.2">
            <path gorn="0.3.7.0"  id="0.1.7.0" fill="#FFFFFF" d="M26.324,21.263c0-0.784-0.636-1.418-1.418-1.418c-0.78,0-1.418,0.634-1.418,1.418v-0.097c0-0.783,0.638-1.417,1.418-1.417c0.782,0,1.418,0.634,1.418,1.417V21.263z"/>
            <path gorn="0.3.7.1"  id="0.1.7.1" fill="#FFFFFF" d="M5.695,21.263c0-0.784-0.635-1.418-1.418-1.418c-0.784,0-1.418,0.634-1.418,1.418v-0.097c0-0.783,0.634-1.417,1.418-1.417c0.783,0,1.418,0.634,1.418,1.417V21.263z"/>
        </g>
        <g gorn="0.3.8"  id="0.1.8" opacity="0.2">
            <path gorn="0.3.8.0"  id="0.1.8.0" fill="#FFFFFF" d="M26.324,48.552c0-0.783-0.636-1.418-1.418-1.418c-0.78,0-1.418,0.635-1.418,1.418v-0.094c0-0.783,0.638-1.422,1.418-1.422c0.782,0,1.418,0.639,1.418,1.422V48.552z"/>
            <path gorn="0.3.8.1"  id="0.1.8.1" fill="#FFFFFF" d="M5.695,48.552c0-0.783-0.635-1.418-1.418-1.418c-0.784,0-1.418,0.635-1.418,1.418v-0.094c0-0.783,0.634-1.422,1.418-1.422c0.783,0,1.418,0.639,1.418,1.422V48.552z"/>
        </g>
        <g gorn="0.3.9"  id="0.1.9">
            <rect gorn="0.3.9.0"  height="6.225" id="0.1.9.0" fill="#808080" width="0.436" x="27.575" y="43.116"/>
            <rect gorn="0.3.9.1"  height="15.9" id="0.1.9.1" fill="#ABABAB" width="0.433" x="27.578" y="27.216"/>
            <polygon gorn="0.3.9.2"  id="0.1.9.2" fill="#666666" points="29.102,43.671 28.291,44.569 28.291,38.312 29.102,37.411 "/>
            <path gorn="0.3.9.3"  id="0.1.9.3" fill="#999999" d="M29.19,43.571l-1.179-0.486v-6.256l1.086,0.445c0.093,0.137,0.093,0.137,0.093,0.137V43.571z"/>
            <path gorn="0.3.9.4"  id="0.1.9.4" fill="#808080" d="M28.011,43.019v0.135l0.942,0.389c0.081,0.033,0.099,0.115,0.041,0.18l-0.597,0.66c-0.058,0.066-0.106,0.15-0.106,0.188s0.049,0.014,0.106-0.051l0.686-0.76c0.058-0.066,0.106-0.15,0.106-0.188s-0.066-0.094-0.147-0.127L28.011,43.019z"/>
        </g>
        <g gorn="0.3.10"  id="0.1.10">
            <rect gorn="0.3.10.0"  height="6.225" id="0.1.10.0" fill="#808080" width="0.435" x="1.179" y="43.116"/>
            <rect gorn="0.3.10.1"  height="15.9" id="0.1.10.1" fill="#ABABAB" width="0.433" x="1.179" y="27.216"/>
            <polygon gorn="0.3.10.2"  id="0.1.10.2" fill="#666666" points="0.088,43.671 0.899,44.569 0.899,38.312 0.088,37.411 "/>
            <path gorn="0.3.10.3"  id="0.1.10.3" fill="#999999" d="M0,43.571l1.179-0.486v-6.256l-1.086,0.445C0,37.411,0,37.411,0,37.411V43.571z"/>
            <path gorn="0.3.10.4"  id="0.1.10.4" fill="#808080" d="M1.179,43.019v0.135l-0.942,0.389c-0.081,0.033-0.099,0.115-0.041,0.18l0.596,0.66c0.059,0.066,0.107,0.15,0.107,0.188s-0.048,0.014-0.107-0.051l-0.685-0.76C0.049,43.692,0,43.608,0,43.571s0.066-0.094,0.147-0.127L1.179,43.019z"/>
        </g>
    </g>
    <rect gorn="0.4"  height="1.3809999" id="0.1.5.0.1-7" style="fill:#8c8c8c" width="1.191" x="17.695791" y="58.438488"/>
    <path gorn="0.5"  id="0.1.5.1.1.0-8" style="fill:#8c8c8c" d="m 17.087792,56.161491 c 0,-0.084 0.068,-0.154 0.152,-0.154 l 2.104,0 c 0.084,0 0.152,0.07 0.152,0.154 l 0,2.303 c 0,0.084 -0.068,0.154 -0.152,0.154 l -2.104,0 c -0.084,0 -0.152,-0.07 -0.152,-0.154 l 0,-2.303 z"/>
    <path gorn="0.6"  id="connector3pin" style="fill:#808080" d="m 18.611791,59.530491 c 0,0.098 -0.094,0.18 -0.211,0.18 l -0.220999,0 c -0.115,0 -0.209,-0.082 -0.209,-0.18 l 0,-1.475 c 0,-0.098 0.094,-0.18 0.209,-0.18 l 0.220999,0 c 0.117001,0 0.211,0.082 0.211,0.18 l 0,1.475 z"/>
    <rect gorn="0.7"  height="1.3809999" id="0.1.5.0.1-3" style="fill:#8c8c8c" width="1.191" x="10.28662" y="58.348976"/>
    <path gorn="0.8"  id="0.1.5.1.1.0-7" style="fill:#8c8c8c" d="m 9.6786196,56.07198 c 0,-0.084 0.068,-0.154 0.152,-0.154 l 2.1039994,0 c 0.084,0 0.152,0.07 0.152,0.154 l 0,2.303 c 0,0.084 -0.068,0.154 -0.152,0.154 l -2.1039994,0 c -0.084,0 -0.152,-0.07 -0.152,-0.154 l 0,-2.303 z"/>
    <path gorn="0.9"  id="connector1pin" style="fill:#808080" d="m 11.202619,59.44098 c 0,0.098 -0.094,0.18 -0.211,0.18 l -0.221,0 c -0.115,0 -0.209,-0.082 -0.209,-0.18 l 0,-1.475 c 0,-0.098 0.094,-0.18 0.209,-0.18 l 0.221,0 c 0.117,0 0.211,0.082 0.211,0.18 l 0,1.475 z"/>
</svg>
