<?xml version='1.0' encoding='UTF-8' standalone='no'?>
<!-- Created with Fritzing (http://www.fritzing.org/) -->
<svg xmlns="http://www.w3.org/2000/svg" y="0in" viewBox="0 0 300 400" baseProfile="tiny" height="0.4in" version="1.2"  width="0.3in" x="0in">
    <desc>
        <referenceFile>sparkfun-connectors_1x06-smd_breadboard.svg</referenceFile>
    </desc>
    <desc>Fritzing breadboard generated by brd2svg</desc>
    <g id="breadboard">
        <g id="icon">
            <path stroke="none" stroke-width="0" fill="#1F7A34" d="M0,0L0,170A30,30 0 0 1 0,230L0,400L300,400L300,0L0,0z"/>
            <g transform="translate(-152.5,-71.9193)">
                <g>
                    <g transform="matrix(0.165289, 0, 0, 0.165289, 252.5, 226.974)">
                        <g>
                            <rect y="3.49677e-14" stroke-linecap="round" height="118.11" stroke="none" stroke-width="0" width="39.3701" x="332.815" fill="#F7BD13" connectorname="4"/>
                            <rect y="3.49677e-14" stroke-linecap="round" height="118.11" stroke="none" stroke-width="0" width="39.3701" x="432.815" fill="#F7BD13" connectorname="5"/>
                            <rect y="3.49677e-14" stroke-linecap="round" height="118.11" stroke="none" stroke-width="0" width="39.3701" x="532.815" fill="#F7BD13" connectorname="6"/>
                            <rect y="3.49677e-14" stroke-linecap="round" height="118.11" stroke="none" stroke-width="0" width="39.3701" x="232.815" fill="#F7BD13" connectorname="3"/>
                            <rect y="3.49677e-14" stroke-linecap="round" height="118.11" stroke="none" stroke-width="0" width="39.3701" x="132.815" fill="#F7BD13" connectorname="2"/>
                            <rect y="3.49677e-14" stroke-linecap="round" height="118.11" stroke="none" stroke-width="0" width="39.3701" x="32.815" fill="#F7BD13" connectorname="1"/>
                            <circle r="27.5591" id="nonconn0" cx="102.5" stroke="black" stroke-width="0" fill="black" cy="255.906"/>
                            <circle r="27.5591" id="nonconn1" cx="502.5" stroke="black" stroke-width="0" fill="black" cy="255.906"/>
                            <rect y="33.7509" height="339.646" stroke="none" stroke-width="0" width="605" x="0" fill="#303030"/>
                            <polygon points="0,33.7509 605,33.7509 595,43.7509 10,43.7509" fill="#1f1f1f"/>
                            <polygon points="0,373.397 605,373.397 595,363.397 10,363.397" fill="#1f1f1f"/>
                            <polygon points="0,33.7509 0,373.397 10,363.397 10,43.7509" fill="#000000"/>
                            <polygon points="605,33.7509 605,373.397 595,363.397 595,43.7509" fill="#3d3d3d"/>
                            <circle r="10" cx="30" stroke="none" stroke-width="0" fill="#1f1f1f" cy="343.397"/>
                        </g>
                    </g>
                </g>
            </g>
            <text y="224.375" id="label" stroke="none" font-family="OCRA" stroke-width="0" text-anchor="start" x="50" fill="white" font-size="65">1X06-SMD</text>
            <g transform="translate(63.5,326.05)">
                <g>
                    <g transform="rotate(-90)">
                        <g>
                            <text y="0" stroke="none" font-family="OCRA" stroke-width="0" text-anchor="start" x="0" fill="white" font-size="45">1</text>
                        </g>
                    </g>
                </g>
            </g>
            <g transform="translate(63.5,73.95)">
                <g>
                    <g transform="rotate(-90)">
                        <g>
                            <text y="0" stroke="none" font-family="OCRA" stroke-width="0" text-anchor="end" x="0" fill="white" font-size="45">6</text>
                        </g>
                    </g>
                </g>
            </g>
            <g transform="translate(163.5,326.05)">
                <g>
                    <g transform="rotate(-90)">
                        <g>
                            <text y="0" stroke="none" font-family="OCRA" stroke-width="0" text-anchor="start" x="0" fill="white" font-size="45">2</text>
                        </g>
                    </g>
                </g>
            </g>
            <g transform="translate(163.5,73.95)">
                <g>
                    <g transform="rotate(-90)">
                        <g>
                            <text y="0" stroke="none" font-family="OCRA" stroke-width="0" text-anchor="end" x="0" fill="white" font-size="45">5</text>
                        </g>
                    </g>
                </g>
            </g>
            <g transform="translate(263.5,326.05)">
                <g>
                    <g transform="rotate(-90)">
                        <g>
                            <text y="0" stroke="none" font-family="OCRA" stroke-width="0" text-anchor="start" x="0" fill="white" font-size="45">3</text>
                        </g>
                    </g>
                </g>
            </g>
            <g transform="translate(263.5,73.95)">
                <g>
                    <g transform="rotate(-90)">
                        <g>
                            <text y="0" stroke="none" font-family="OCRA" stroke-width="0" text-anchor="end" x="0" fill="white" font-size="45">4</text>
                        </g>
                    </g>
                </g>
            </g>
        </g>
        <g transform="translate(34.035,334.05)">
            <g>
                <rect y="0" id="connector0pin" height="31.9" stroke-width="0" width="31.93" x="0" fill="#8D8C8C"/>
                <rect y="7.73544" height="16.4152" stroke-width="0" width="16.4442" x="7.79153" fill="#8C8663"/>
                <polygon stroke-width="0" points="0,31.9,7.79153,24.1368,7.79153,6.97162,0,0" fill="#B8AF82"/>
                <polygon stroke-width="0" points="24.2079,7.76321,7.90264,7.76321,0,0,31.93,0" fill="#80795B"/>
                <polygon stroke-width="0" points="24.2079,24.1368,24.2079,7.76321,31.93,0,31.93,31.9" fill="#5E5B43"/>
                <polygon stroke-width="0" points="0,31.9,7.87486,24.1368,24.2079,24.1368,31.93,31.9" fill="#9A916C"/>
            </g>
        </g>
        <g transform="translate(34.035,34.05)">
            <g>
                <rect y="0" id="connector5pin" height="31.9" stroke-width="0" width="31.93" x="0" fill="#8D8C8C"/>
                <rect y="7.73544" height="16.4152" stroke-width="0" width="16.4442" x="7.79153" fill="#8C8663"/>
                <polygon stroke-width="0" points="0,31.9,7.79153,24.1368,7.79153,6.97162,0,0" fill="#B8AF82"/>
                <polygon stroke-width="0" points="24.2079,7.76321,7.90264,7.76321,0,0,31.93,0" fill="#80795B"/>
                <polygon stroke-width="0" points="24.2079,24.1368,24.2079,7.76321,31.93,0,31.93,31.9" fill="#5E5B43"/>
                <polygon stroke-width="0" points="0,31.9,7.87486,24.1368,24.2079,24.1368,31.93,31.9" fill="#9A916C"/>
            </g>
        </g>
        <g transform="translate(134.035,334.05)">
            <g>
                <rect y="0" id="connector1pin" height="31.9" stroke-width="0" width="31.93" x="0" fill="#8D8C8C"/>
                <rect y="7.73544" height="16.4152" stroke-width="0" width="16.4442" x="7.79153" fill="#8C8663"/>
                <polygon stroke-width="0" points="0,31.9,7.79153,24.1368,7.79153,6.97162,0,0" fill="#B8AF82"/>
                <polygon stroke-width="0" points="24.2079,7.76321,7.90264,7.76321,0,0,31.93,0" fill="#80795B"/>
                <polygon stroke-width="0" points="24.2079,24.1368,24.2079,7.76321,31.93,0,31.93,31.9" fill="#5E5B43"/>
                <polygon stroke-width="0" points="0,31.9,7.87486,24.1368,24.2079,24.1368,31.93,31.9" fill="#9A916C"/>
            </g>
        </g>
        <g transform="translate(134.035,34.05)">
            <g>
                <rect y="0" id="connector4pin" height="31.9" stroke-width="0" width="31.93" x="0" fill="#8D8C8C"/>
                <rect y="7.73544" height="16.4152" stroke-width="0" width="16.4442" x="7.79153" fill="#8C8663"/>
                <polygon stroke-width="0" points="0,31.9,7.79153,24.1368,7.79153,6.97162,0,0" fill="#B8AF82"/>
                <polygon stroke-width="0" points="24.2079,7.76321,7.90264,7.76321,0,0,31.93,0" fill="#80795B"/>
                <polygon stroke-width="0" points="24.2079,24.1368,24.2079,7.76321,31.93,0,31.93,31.9" fill="#5E5B43"/>
                <polygon stroke-width="0" points="0,31.9,7.87486,24.1368,24.2079,24.1368,31.93,31.9" fill="#9A916C"/>
            </g>
        </g>
        <g transform="translate(234.035,334.05)">
            <g>
                <rect y="0" id="connector2pin" height="31.9" stroke-width="0" width="31.93" x="0" fill="#8D8C8C"/>
                <rect y="7.73544" height="16.4152" stroke-width="0" width="16.4442" x="7.79153" fill="#8C8663"/>
                <polygon stroke-width="0" points="0,31.9,7.79153,24.1368,7.79153,6.97162,0,0" fill="#B8AF82"/>
                <polygon stroke-width="0" points="24.2079,7.76321,7.90264,7.76321,0,0,31.93,0" fill="#80795B"/>
                <polygon stroke-width="0" points="24.2079,24.1368,24.2079,7.76321,31.93,0,31.93,31.9" fill="#5E5B43"/>
                <polygon stroke-width="0" points="0,31.9,7.87486,24.1368,24.2079,24.1368,31.93,31.9" fill="#9A916C"/>
            </g>
        </g>
        <g transform="translate(234.035,34.05)">
            <g>
                <rect y="0" id="connector3pin" height="31.9" stroke-width="0" width="31.93" x="0" fill="#8D8C8C"/>
                <rect y="7.73544" height="16.4152" stroke-width="0" width="16.4442" x="7.79153" fill="#8C8663"/>
                <polygon stroke-width="0" points="0,31.9,7.79153,24.1368,7.79153,6.97162,0,0" fill="#B8AF82"/>
                <polygon stroke-width="0" points="24.2079,7.76321,7.90264,7.76321,0,0,31.93,0" fill="#80795B"/>
                <polygon stroke-width="0" points="24.2079,24.1368,24.2079,7.76321,31.93,0,31.93,31.9" fill="#5E5B43"/>
                <polygon stroke-width="0" points="0,31.9,7.87486,24.1368,24.2079,24.1368,31.93,31.9" fill="#9A916C"/>
            </g>
        </g>
    </g>
</svg>
